<svg xmlns="http://www.w3.org/2000/svg" width="500" viewBox="0 0 375 375" height="500" version="1.0"><path d="M112.428 200.25a8.813 8.813 0 0 1-.687-2.64c-1.594 1.093-2.855 1.82-3.781 2.171-.918.344-2.047.516-3.39.516-2.806 0-4.981-.828-6.532-2.485-1.606-1.75-2.406-3.769-2.406-6.062 0-1.383.312-2.703.937-3.953a8.52 8.52 0 0 1 2.625-3.11c1.54-1.132 3.473-1.703 5.797-1.703 2.07 0 4.156.778 6.25 2.328.02-.32.031-.53.031-.625 0-1.988-.61-3.535-1.828-4.64-1.117-.988-2.71-1.485-4.781-1.485-1.625 0-3.574.637-5.844 1.907l-1-2.485c2.719-1.363 5.207-2.047 7.469-2.047 2.738 0 4.96.7 6.672 2.094.883.73 1.488 1.574 1.812 2.531.32.961.485 2.368.485 4.22 0 2.28-.012 3.859-.032 4.734a95.559 95.559 0 0 0-.047 1.921c0 1.625.094 3.305.282 5.032.093.937.363 1.883.812 2.828Zm-7.718-14.625c-1.657 0-3.086.5-4.282 1.5-1.18.98-1.765 2.336-1.765 4.062 0 2.336.89 4.07 2.672 5.204 1.101.71 2.347 1.062 3.734 1.062 1.883 0 3.422-.55 4.61-1.656 1.124-1.082 1.687-2.461 1.687-4.14 0-1.821-.7-3.302-2.094-4.438-1.293-1.063-2.812-1.594-4.562-1.594ZM137.363 197.453c.082-.988.125-2.223.125-3.703l-.047-23.14c-.011-1.071-.109-2.532-.296-4.376l3.734-.578c-.063.281-.106 1.871-.125 4.766v.219l-.016 7.046c1.875-1.113 4.07-1.671 6.594-1.671 2.29 0 4.441.515 6.453 1.546 2.02 1.043 3.563 2.465 4.625 4.266 1.008 1.668 1.516 3.547 1.516 5.64 0 2.282-.563 4.446-1.688 6.485-2.375 4.262-6.125 6.39-11.25 6.39-1.43 0-3.058-.273-4.89-.812-1.825-.55-3.403-1.242-4.735-2.078Zm3.313-2.234c.863.699 1.898 1.261 3.11 1.687 1.218.418 2.398.625 3.546.625 1.227 0 2.445-.254 3.656-.765 1.22-.52 2.266-1.227 3.141-2.125 1.57-1.594 2.36-3.739 2.36-6.438 0-2.613-.805-4.82-2.407-6.625-1.586-1.758-3.992-2.64-7.219-2.64-2.312 0-4.367.632-6.156 1.89ZM191.286 175.516c3.851 0 6.972 1.468 9.359 4.406 1.883 2.336 2.828 5.055 2.828 8.156 0 2.637-.734 5.031-2.203 7.188-1.094 1.617-2.527 2.914-4.297 3.89-1.875 1.031-3.918 1.547-6.125 1.547-2.312 0-4.48-.683-6.5-2.047-2.086-1.394-3.621-3.285-4.61-5.672-.687-1.593-1.03-3.207-1.03-4.843 0-3.696 1.437-6.864 4.312-9.5 2.258-2.082 5.016-3.125 8.266-3.125Zm-.016 3.187c-2.531 0-4.68.965-6.438 2.89-1.68 1.844-2.515 4.012-2.515 6.5 0 2.65.805 4.9 2.422 6.75 1.726 2.012 3.804 3.016 6.234 3.016 2.664 0 4.906-1.078 6.719-3.234 1.594-1.875 2.39-4.05 2.39-6.531 0-2.625-.898-4.89-2.687-6.797-1.625-1.727-3.668-2.594-6.125-2.594ZM242.267 200.5c-.5-.832-.906-1.77-1.218-2.813-2.149 1.856-4.61 2.782-7.39 2.782-2.43 0-4.54-.742-6.33-2.235-1.96-1.644-2.937-4.113-2.937-7.406v-10.25c0-.445-.027-1.113-.078-2-.03-.738-.058-1.453-.078-2.14h3.64c-.03.367-.062 1.718-.093 4.062v.25l-.031 10.016c0 2.168.375 3.734 1.125 4.703 1.176 1.492 2.867 2.234 5.078 2.234 1.52 0 3.129-.508 4.828-1.531.844-.531 1.414-1.024 1.719-1.485l-.047-18.25h3.531l-.015.282c-.168 3.023-.25 5.968-.25 8.843l.046 7.891c0 2.356.38 4.371 1.141 6.047ZM280.2 198.953c-1.648.918-3.288 1.375-4.921 1.375-1.73 0-3.25-.488-4.563-1.469-1.742-1.3-2.609-3.586-2.609-6.859v-.5c.031-2.895.047-4.754.047-5.578 0-.758-.055-2.317-.156-4.672h-2.813l-.094-2.672h2.985l.047-3.062c.02-.563-.012-1.43-.094-2.61-.086-1.25-.125-2.101-.125-2.562h3.578c.02.086.031.133.031.14.008.45-.031 1.29-.125 2.516-.031.418-.058 1.25-.078 2.5l-.047 3.078 7.64-.062v2.734h-7.64v10.406c0 1.93.238 3.297.719 4.11.75 1.28 1.96 1.921 3.64 1.921 1.407 0 2.583-.332 3.532-1Zm0 0" fill="#f4f4ee"/></svg>