<svg xmlns="http://www.w3.org/2000/svg" width="500" viewBox="0 0 375 375" height="500" version="1.0"><path d="M96.058 197.453c.082-.988.125-2.223.125-3.703l-.047-23.14c-.011-1.071-.109-2.532-.296-4.376l3.734-.578c-.063.281-.105 1.871-.125 4.766v.219l-.016 7.046c1.875-1.113 4.07-1.671 6.594-1.671 2.29 0 4.442.515 6.453 1.546 2.02 1.043 3.563 2.465 4.625 4.266 1.008 1.668 1.516 3.547 1.516 5.64 0 2.282-.563 4.446-1.688 6.485-2.375 4.262-6.125 6.39-11.25 6.39-1.43 0-3.058-.273-4.89-.812-1.824-.55-3.403-1.242-4.735-2.078Zm3.313-2.234c.863.699 1.898 1.261 3.11 1.687 1.218.418 2.398.625 3.546.625 1.227 0 2.445-.254 3.656-.765 1.22-.52 2.266-1.227 3.141-2.125 1.57-1.594 2.36-3.739 2.36-6.438 0-2.613-.805-4.82-2.407-6.625-1.586-1.758-3.992-2.64-7.219-2.64-2.312 0-4.367.632-6.156 1.89ZM149.98 175.516c3.852 0 6.973 1.468 9.36 4.406 1.883 2.336 2.828 5.055 2.828 8.156 0 2.637-.734 5.031-2.203 7.188-1.094 1.617-2.527 2.914-4.297 3.89-1.875 1.031-3.918 1.547-6.125 1.547-2.312 0-4.48-.683-6.5-2.047-2.086-1.394-3.621-3.285-4.61-5.672-.687-1.593-1.03-3.207-1.03-4.843 0-3.696 1.437-6.864 4.312-9.5 2.258-2.082 5.016-3.125 8.266-3.125Zm-.015 3.187c-2.531 0-4.68.965-6.438 2.89-1.68 1.844-2.515 4.012-2.515 6.5 0 2.65.805 4.9 2.422 6.75 1.726 2.012 3.804 3.016 6.234 3.016 2.664 0 4.906-1.078 6.719-3.234 1.594-1.875 2.39-4.05 2.39-6.531 0-2.625-.898-4.89-2.687-6.797-1.625-1.727-3.668-2.594-6.125-2.594ZM193.54 175.516c3.852 0 6.973 1.468 9.36 4.406 1.883 2.336 2.828 5.055 2.828 8.156 0 2.637-.734 5.031-2.203 7.188-1.094 1.617-2.527 2.914-4.297 3.89-1.875 1.031-3.918 1.547-6.125 1.547-2.312 0-4.48-.683-6.5-2.047-2.086-1.394-3.621-3.285-4.61-5.672-.687-1.593-1.03-3.207-1.03-4.843 0-3.696 1.437-6.864 4.312-9.5 2.258-2.082 5.016-3.125 8.266-3.125Zm-.015 3.187c-2.531 0-4.68.965-6.438 2.89-1.68 1.844-2.515 4.012-2.515 6.5 0 2.65.805 4.9 2.422 6.75 1.726 2.012 3.804 3.016 6.234 3.016 2.664 0 4.906-1.078 6.719-3.234 1.594-1.875 2.39-4.05 2.39-6.531 0-2.625-.898-4.89-2.687-6.797-1.625-1.727-3.668-2.594-6.125-2.594ZM226.57 199.875c.113-6.852.171-15.254.171-25.203v-.5c0-3.195-.047-5.817-.14-7.86l3.78-.75v.172c0 .618-.085 2.118-.25 4.5-.062 1.063-.093 2.485-.093 4.266v.078l-.062 11.203a267.47 267.47 0 0 0 11.406-10.156l2.203 2.484c-2.18 1.48-4.09 2.934-5.734 4.36l-5.157 4.5 12.97 10.937-2.438 2.766c-.118-.106-.774-.762-1.97-1.969l-2.265-2.172-8.953-7.687-.062 6.422c0 .312.066 1.777.203 4.39l.03.219ZM263.775 196.219 265.9 194c.832 1.074 1.926 1.937 3.282 2.594 1.363.656 2.742.984 4.14.984 1.145 0 2.05-.238 2.719-.719.906-.664 1.36-1.52 1.36-2.562 0-.695-.227-1.297-.673-1.797a4.697 4.697 0 0 0-1.562-1.11c-.617-.288-1.805-.69-3.563-1.203-2.261-.675-3.933-1.445-5.015-2.312-1.305-1.031-1.953-2.55-1.953-4.563 0-2.351.882-4.285 2.656-5.796 1.457-1.25 3.36-1.875 5.703-1.875 1.477 0 2.977.312 4.5.937 1.52.625 2.75 1.43 3.688 2.406l-1.86 2.235c-2.031-1.801-4.074-2.703-6.125-2.703-1.46 0-2.719.414-3.781 1.234-1.055.812-1.578 1.789-1.578 2.922 0 1.18.488 2.133 1.469 2.86.53.398 1.003.683 1.421.859.426.18 1.598.562 3.516 1.156 2.488.805 4.227 1.758 5.219 2.86.863.968 1.297 2.116 1.297 3.437 0 2.062-.84 3.75-2.516 5.062-1.46 1.145-3.242 1.719-5.344 1.719-1.593 0-3.218-.398-4.875-1.188a13.456 13.456 0 0 1-4.25-3.218Zm0 0" fill="#f4f4ee"/></svg>