<svg xmlns="http://www.w3.org/2000/svg" width="500" viewBox="0 0 375 375" height="500" version="1.0"><path d="M81.187 196.766c-3.261 2.5-6.515 3.75-9.765 3.75-3.575 0-6.446-1.223-8.61-3.672-1.918-2.164-2.875-4.742-2.875-7.735 0-2.3.555-4.523 1.672-6.672 2.313-4.425 5.914-6.64 10.813-6.64 3.187 0 6.035 1.047 8.547 3.14l-1.954 2.61c-.668-.727-1.68-1.363-3.03-1.906-1.345-.54-2.618-.813-3.813-.813-2.493 0-4.543.867-6.157 2.594-1.804 1.96-2.703 4.281-2.703 6.969 0 1.398.285 2.746.86 4.046a9.503 9.503 0 0 0 2.39 3.329c1.532 1.367 3.36 2.046 5.485 2.046 2.52 0 4.922-1.039 7.203-3.125ZM112.565 175.516c3.851 0 6.973 1.468 9.36 4.406 1.882 2.336 2.827 5.055 2.827 8.156 0 2.637-.734 5.031-2.203 7.188-1.093 1.617-2.527 2.914-4.297 3.89-1.875 1.031-3.918 1.547-6.125 1.547-2.312 0-4.48-.683-6.5-2.047-2.086-1.394-3.62-3.285-4.609-5.672-.687-1.593-1.031-3.207-1.031-4.843 0-3.696 1.437-6.864 4.312-9.5 2.258-2.082 5.016-3.125 8.266-3.125Zm-.016 3.187c-2.53 0-4.68.965-6.437 2.89-1.68 1.844-2.516 4.012-2.516 6.5 0 2.65.805 4.9 2.422 6.75 1.727 2.012 3.805 3.016 6.234 3.016 2.664 0 4.907-1.078 6.72-3.234 1.593-1.875 2.39-4.05 2.39-6.531 0-2.625-.899-4.89-2.688-6.797-1.625-1.727-3.668-2.594-6.125-2.594ZM145.922 199.875c0-.031.047-1.273.14-3.734v-12.782c0-1.718-.156-3.093-.468-4.125 4.05-2.394 7.562-3.593 10.53-3.593 2.458 0 4.595.656 6.407 1.968 1.125.813 1.914 1.782 2.375 2.907.457 1.117.688 2.664.688 4.64l-.047 6.844.015 3.64v.157c.051 2.305.11 3.664.172 4.078h-3.984v-.203c.27-2.664.406-4.64.406-5.922v-8.266c0-1.644-.281-3.023-.844-4.14-.418-.813-1.07-1.446-1.953-1.907-.96-.519-2.027-.78-3.203-.78-2.344 0-4.57.648-6.672 1.937v13.547c.008 1.511.114 3.421.313 5.734ZM201.928 198.953c-1.648.918-3.289 1.375-4.922 1.375-1.73 0-3.25-.488-4.562-1.469-1.742-1.3-2.61-3.586-2.61-6.859v-.5c.032-2.895.047-4.754.047-5.578 0-.758-.054-2.317-.156-4.672h-2.812l-.094-2.672h2.984l.047-3.062c.02-.563-.012-1.43-.094-2.61-.086-1.25-.125-2.101-.125-2.562h3.578c.02.086.032.133.032.14.007.45-.032 1.29-.125 2.516-.032.418-.059 1.25-.078 2.5l-.047 3.078 7.64-.062v2.734h-7.64v10.406c0 1.93.238 3.297.718 4.11.75 1.28 1.961 1.921 3.641 1.921 1.406 0 2.582-.332 3.531-1ZM237.366 200.25a8.813 8.813 0 0 1-.687-2.64c-1.594 1.093-2.856 1.82-3.781 2.171-.918.344-2.047.516-3.391.516-2.805 0-4.98-.828-6.531-2.485-1.606-1.75-2.406-3.769-2.406-6.062 0-1.383.312-2.703.937-3.953a8.52 8.52 0 0 1 2.625-3.11c1.54-1.132 3.473-1.703 5.797-1.703 2.07 0 4.156.778 6.25 2.328.02-.32.031-.53.031-.625 0-1.988-.61-3.535-1.828-4.64-1.117-.988-2.71-1.485-4.781-1.485-1.625 0-3.574.637-5.844 1.907l-1-2.485c2.719-1.363 5.207-2.047 7.469-2.047 2.738 0 4.96.7 6.672 2.094.882.73 1.488 1.574 1.812 2.531.32.961.485 2.368.485 4.22 0 2.28-.012 3.859-.032 4.734a95.559 95.559 0 0 0-.047 1.921c0 1.625.094 3.305.282 5.032.093.937.363 1.883.812 2.828Zm-7.718-14.625c-1.657 0-3.086.5-4.282 1.5-1.18.98-1.765 2.336-1.765 4.062 0 2.336.89 4.07 2.672 5.204 1.101.71 2.347 1.062 3.734 1.062 1.883 0 3.422-.55 4.61-1.656 1.124-1.082 1.687-2.461 1.687-4.14 0-1.821-.7-3.302-2.094-4.438-1.293-1.063-2.812-1.594-4.562-1.594ZM281.286 196.766c-3.262 2.5-6.516 3.75-9.766 3.75-3.574 0-6.445-1.223-8.61-3.672-1.917-2.164-2.874-4.742-2.874-7.735 0-2.3.554-4.523 1.671-6.672 2.313-4.425 5.915-6.64 10.813-6.64 3.187 0 6.035 1.047 8.547 3.14l-1.953 2.61c-.668-.727-1.68-1.363-3.032-1.906-1.343-.54-2.617-.813-3.812-.813-2.492 0-4.543.867-6.156 2.594-1.805 1.96-2.703 4.281-2.703 6.969 0 1.398.285 2.746.859 4.046a9.503 9.503 0 0 0 2.39 3.329c1.532 1.367 3.36 2.046 5.485 2.046 2.52 0 4.922-1.039 7.203-3.125ZM315.554 198.953c-1.649.918-3.29 1.375-4.922 1.375-1.73 0-3.25-.488-4.562-1.469-1.743-1.3-2.61-3.586-2.61-6.859v-.5c.031-2.895.047-4.754.047-5.578 0-.758-.055-2.317-.156-4.672h-2.813l-.093-2.672h2.984l.047-3.062c.02-.563-.012-1.43-.094-2.61-.086-1.25-.125-2.101-.125-2.562h3.578c.02.086.031.133.031.14.008.45-.03 1.29-.125 2.516-.03.418-.058 1.25-.078 2.5l-.047 3.078 7.641-.062v2.734h-7.64v10.406c0 1.93.238 3.297.718 4.11.75 1.28 1.961 1.921 3.64 1.921 1.407 0 2.583-.332 3.532-1Zm0 0" fill="#272727"/></svg>