<svg xmlns="http://www.w3.org/2000/svg" width="500" viewBox="0 0 375 375" height="500" version="1.0"><path d="M98.7 199.875c.082-.363.125-1.031.125-2l.031-2.078.016-11.656c0-1.957-.156-3.524-.469-4.704a22.727 22.727 0 0 1 5-2.593c1.8-.664 3.39-1 4.766-1 2.75 0 4.96.968 6.64 2.906 2.32-2.07 4.813-3.11 7.47-3.11 2.425 0 4.39.758 5.89 2.266.789.813 1.328 1.711 1.61 2.688.28.98.421 2.43.421 4.343l-.047 9.735c0 .781.031 2.445.094 4.984v.219h-3.781c.132-1.29.203-3.25.203-5.875l.047-7.281c.02-2.664-.164-4.442-.547-5.328-.73-1.688-2.14-2.532-4.235-2.532-.949 0-2 .278-3.156.828-1.148.543-2.094 1.22-2.844 2.032.196.867.313 3.312.344 7.343l-.047 3.97c.082 4.218.133 6.5.156 6.843h-3.765c.144-1.04.219-2.703.219-4.984v-8.266c0-2.656-.122-4.32-.36-5-.637-1.781-2.07-2.672-4.297-2.672-.898 0-1.906.168-3.03.5-1.126.336-2.079.742-2.86 1.219a383.651 383.651 0 0 0-.032 4.89l.079 6.922v.172c.082 4.469.14 6.875.171 7.219ZM171.02 200.5c-.5-.832-.906-1.77-1.219-2.813-2.148 1.856-4.61 2.782-7.39 2.782-2.43 0-4.54-.742-6.328-2.235-1.961-1.644-2.938-4.113-2.938-7.406v-10.25c0-.445-.027-1.113-.078-2-.031-.738-.059-1.453-.078-2.14h3.64c-.03.367-.062 1.718-.093 4.062v.25l-.032 10.016c0 2.168.375 3.734 1.125 4.703 1.176 1.492 2.868 2.234 5.079 2.234 1.52 0 3.128-.508 4.828-1.531.843-.531 1.414-1.024 1.718-1.485l-.046-18.25h3.53l-.015.282c-.168 3.023-.25 5.968-.25 8.843l.047 7.891c0 2.356.379 4.371 1.14 6.047ZM193.485 196.219 195.61 194c.832 1.074 1.925 1.937 3.28 2.594 1.364.656 2.743.984 4.141.984 1.145 0 2.051-.238 2.72-.719.905-.664 1.359-1.52 1.359-2.562 0-.695-.227-1.297-.672-1.797a4.697 4.697 0 0 0-1.563-1.11c-.617-.288-1.804-.69-3.562-1.203-2.262-.675-3.934-1.445-5.016-2.312-1.305-1.031-1.953-2.55-1.953-4.563 0-2.351.883-4.285 2.656-5.796 1.457-1.25 3.36-1.875 5.703-1.875 1.477 0 2.977.312 4.5.937 1.52.625 2.75 1.43 3.688 2.406l-1.86 2.235c-2.03-1.801-4.074-2.703-6.125-2.703-1.46 0-2.718.414-3.78 1.234-1.055.812-1.579 1.789-1.579 2.922 0 1.18.488 2.133 1.469 2.86.531.398 1.004.683 1.422.859.425.18 1.597.562 3.515 1.156 2.489.805 4.227 1.758 5.22 2.86.862.968 1.296 2.116 1.296 3.437 0 2.062-.84 3.75-2.516 5.062-1.46 1.145-3.242 1.719-5.343 1.719-1.594 0-3.22-.398-4.875-1.188a13.456 13.456 0 0 1-4.25-3.218ZM232.472 199.875l.016-14.516v-.172l-.172-8.578-.016-.172 3.86-.015v.922c0 .812-.04 2.156-.11 4.031a175.43 175.43 0 0 0-.062 4l-.188 14.5Zm1.734-34.344c.77 0 1.407.266 1.907.797.507.531.765 1.188.765 1.969a3 3 0 0 1-.828 2.11c-.543.585-1.187.874-1.937.874s-1.391-.285-1.922-.86a2.9 2.9 0 0 1-.797-2.046c0-.781.273-1.445.828-2 .55-.563 1.211-.844 1.984-.844ZM278.601 196.766c-3.262 2.5-6.516 3.75-9.766 3.75-3.574 0-6.445-1.223-8.609-3.672-1.918-2.164-2.875-4.742-2.875-7.735 0-2.3.555-4.523 1.672-6.672 2.312-4.425 5.914-6.64 10.812-6.64 3.188 0 6.036 1.047 8.547 3.14l-1.953 2.61c-.668-.727-1.68-1.363-3.031-1.906-1.344-.54-2.617-.813-3.813-.813-2.492 0-4.543.867-6.156 2.594-1.804 1.96-2.703 4.281-2.703 6.969 0 1.398.285 2.746.86 4.046a9.503 9.503 0 0 0 2.39 3.329c1.531 1.367 3.36 2.046 5.484 2.046 2.52 0 4.922-1.039 7.204-3.125Zm0 0" fill="#272727"/></svg>