<svg xmlns="http://www.w3.org/2000/svg" width="500" viewBox="0 0 375 375" height="500" version="1.0"><path d="M88.766 208.874a77.64 77.64 0 0 0 .234-4.531l.469-23.453v-.906c0-.313.008-1.067.031-2.266.008-.394.016-.75.016-1.062 0-.532-.031-1.02-.094-1.47l3.906-.546-.453 5.937v.375l-.468 21.641v.234c0 2.47.023 4.485.078 6.047ZM136.177 204.374c-1.836 1.907-3.43 3.184-4.781 3.828-1.868.895-3.762 1.344-5.688 1.344-3.668 0-6.637-1.351-8.906-4.062-2-2.375-3-5.078-3-8.11 0-2.093.523-4.156 1.578-6.187.977-1.906 2.27-3.438 3.875-4.594 1.844-1.352 3.969-2.031 6.375-2.031 2.656 0 5.066.875 7.234 2.625 2.72 2.187 4.079 5.14 4.079 8.86 0 .355-.032.714-.094 1.077h-19.547a6.815 6.815 0 0 0-.063.625c0 1.075.29 2.227.875 3.453a10.748 10.748 0 0 0 2.313 3.188c1.531 1.43 3.367 2.14 5.516 2.14 3.05 0 5.82-1.343 8.312-4.03Zm-18.484-9.922h15.906c-.23-1.343-.668-2.503-1.313-3.484a8.004 8.004 0 0 0-2.906-2.625 7.756 7.756 0 0 0-3.75-.953c-2.023 0-3.781.668-5.281 2-1.492 1.324-2.375 3.012-2.656 5.062ZM186.542 208.874c0-.508.03-1.672.093-3.484.032-.914.047-1.805.047-2.672l.031-12.39h-2.984l.016-2.922 3-.016a41.856 41.856 0 0 1-.032-1.234c0-4.344.895-7.493 2.688-9.454 1.508-1.644 3.312-2.468 5.406-2.468 1.77 0 3.242.558 4.422 1.672 1.188 1.117 1.953 2.668 2.297 4.656l-3.078.719c-.75-2.75-1.953-4.125-3.61-4.125-.835 0-1.617.296-2.343.89-.73.594-1.246 1.36-1.547 2.297-.563 1.742-.844 4.063-.844 6.969l3.625.015c3.008.024 5.188-.039 6.531-.187l-.047 3.312c-1.98-.039-3.101-.062-3.359-.062l-3.266.031h-3.484v13.125l.063 2.344-.016 2.219c0 .086.016.34.047.765ZM231.516 184.515c3.852 0 6.973 1.469 9.36 4.406 1.882 2.336 2.827 5.055 2.827 8.156 0 2.637-.734 5.032-2.203 7.188-1.093 1.617-2.527 2.914-4.297 3.89-1.875 1.032-3.918 1.547-6.125 1.547-2.312 0-4.48-.683-6.5-2.046-2.085-1.395-3.62-3.286-4.609-5.672-.687-1.594-1.031-3.207-1.031-4.844 0-3.695 1.437-6.863 4.312-9.5 2.258-2.082 5.016-3.125 8.266-3.125Zm-.016 3.187c-2.53 0-4.68.965-6.437 2.891-1.68 1.844-2.516 4.012-2.516 6.5 0 2.648.805 4.898 2.422 6.75 1.727 2.012 3.805 3.016 6.234 3.016 2.665 0 4.907-1.078 6.72-3.235 1.593-1.875 2.39-4.05 2.39-6.531 0-2.625-.899-4.89-2.688-6.797-1.625-1.726-3.668-2.594-6.125-2.594ZM264.795 216.202l2.39-2c1.082 1.414 2.196 2.422 3.344 3.016 1.156.594 2.531.89 4.125.89 2.8 0 4.86-.886 6.172-2.656 1.082-1.46 1.625-3.46 1.625-6 0-.582-.043-1.25-.125-2-2.461 1.375-4.961 2.063-7.5 2.063-3.586 0-6.508-1.133-8.766-3.406-2.375-2.352-3.562-5.29-3.562-8.813 0-3.687 1.304-6.703 3.922-9.047 2.5-2.27 5.476-3.406 8.937-3.406 2.664 0 5.305.606 7.922 1.813 1.688.78 2.582 1.199 2.688 1.25-.168.562-.336 1.664-.5 3.296-.168 1.637-.25 2.961-.25 3.97 0 2.792.128 6.648.39 11.562.07 1.28.11 2.343.11 3.187 0 3.688-1.016 6.457-3.047 8.313-1.93 1.75-4.461 2.625-7.594 2.625-2.188 0-4.086-.371-5.688-1.11-1.605-.73-3.136-1.914-4.593-3.547Zm17.406-12.078a49.979 49.979 0 0 1-.422-6.562c0-3.469.156-6.113.469-7.938-.813-.55-1.871-.988-3.172-1.312a16.017 16.017 0 0 0-3.969-.5c-2.648 0-4.812.914-6.5 2.734-1.73 1.856-2.594 4.121-2.594 6.797 0 2.844.977 5.18 2.938 7 1.644 1.531 3.672 2.297 6.078 2.297 2.27 0 4.66-.836 7.172-2.516Zm0 0" fill="#272727"/></svg>