<svg xmlns="http://www.w3.org/2000/svg" width="500" viewBox="0 0 375 375" height="500" version="1.0"><path d="M88.766 199.875a77.64 77.64 0 0 0 .234-4.531l.469-23.453v-.907c0-.312.008-1.066.031-2.265.008-.395.016-.75.016-1.063 0-.531-.031-1.02-.094-1.469l3.906-.546-.453 5.937v.375l-.468 21.64v.235c0 2.469.023 4.484.078 6.047ZM136.177 195.375c-1.836 1.906-3.43 3.184-4.781 3.828-1.868.895-3.762 1.344-5.688 1.344-3.668 0-6.637-1.352-8.906-4.063-2-2.375-3-5.078-3-8.109 0-2.094.523-4.156 1.578-6.188.977-1.906 2.27-3.437 3.875-4.593 1.844-1.352 3.969-2.032 6.375-2.032 2.656 0 5.066.875 7.234 2.625 2.72 2.188 4.079 5.141 4.079 8.86 0 .355-.032.715-.094 1.078h-19.547a6.815 6.815 0 0 0-.063.625c0 1.074.29 2.227.875 3.453a10.748 10.748 0 0 0 2.313 3.188c1.531 1.43 3.367 2.14 5.516 2.14 3.05 0 5.82-1.344 8.312-4.031Zm-18.484-9.922h15.906c-.23-1.344-.668-2.504-1.313-3.484a8.004 8.004 0 0 0-2.906-2.625 7.756 7.756 0 0 0-3.75-.953c-2.023 0-3.781.668-5.281 2-1.492 1.324-2.375 3.011-2.656 5.062ZM186.542 199.875c0-.508.03-1.672.093-3.484.032-.914.047-1.805.047-2.672l.031-12.39h-2.984l.016-2.923 3-.015a41.856 41.856 0 0 1-.032-1.235c0-4.344.895-7.492 2.688-9.453 1.508-1.644 3.312-2.469 5.406-2.469 1.77 0 3.242.559 4.422 1.672 1.188 1.117 1.953 2.668 2.297 4.656l-3.078.72c-.75-2.75-1.953-4.126-3.61-4.126-.835 0-1.617.297-2.343.89-.73.595-1.246 1.36-1.547 2.298-.563 1.742-.844 4.062-.844 6.968l3.625.016c3.008.024 5.188-.039 6.531-.187l-.047 3.312c-1.98-.039-3.101-.062-3.359-.062l-3.266.03h-3.484v13.126l.063 2.344-.016 2.218c0 .086.016.34.047.766ZM231.516 175.516c3.852 0 6.973 1.468 9.36 4.406 1.882 2.336 2.827 5.055 2.827 8.156 0 2.637-.734 5.031-2.203 7.188-1.093 1.617-2.527 2.914-4.297 3.89-1.875 1.031-3.918 1.547-6.125 1.547-2.312 0-4.48-.683-6.5-2.047-2.085-1.394-3.62-3.285-4.609-5.672-.687-1.593-1.031-3.207-1.031-4.843 0-3.696 1.437-6.864 4.312-9.5 2.258-2.082 5.016-3.125 8.266-3.125Zm-.016 3.187c-2.53 0-4.68.965-6.437 2.89-1.68 1.844-2.516 4.012-2.516 6.5 0 2.65.805 4.9 2.422 6.75 1.727 2.012 3.805 3.016 6.234 3.016 2.665 0 4.907-1.078 6.72-3.234 1.593-1.875 2.39-4.05 2.39-6.531 0-2.625-.899-4.89-2.688-6.797-1.625-1.727-3.668-2.594-6.125-2.594ZM264.795 207.203l2.39-2c1.082 1.414 2.196 2.422 3.344 3.016 1.156.593 2.531.89 4.125.89 2.8 0 4.86-.886 6.172-2.656 1.082-1.46 1.625-3.46 1.625-6 0-.582-.043-1.25-.125-2-2.461 1.375-4.961 2.063-7.5 2.063-3.586 0-6.508-1.133-8.766-3.407-2.375-2.351-3.562-5.289-3.562-8.812 0-3.688 1.304-6.703 3.922-9.047 2.5-2.27 5.476-3.406 8.937-3.406 2.664 0 5.305.605 7.922 1.812 1.688.781 2.582 1.2 2.688 1.25-.168.563-.336 1.664-.5 3.297-.168 1.637-.25 2.961-.25 3.969 0 2.793.128 6.648.39 11.562.07 1.282.11 2.344.11 3.188 0 3.687-1.016 6.457-3.047 8.312-1.93 1.75-4.461 2.625-7.594 2.625-2.188 0-4.086-.37-5.688-1.109-1.605-.73-3.136-1.914-4.593-3.547Zm17.406-12.078a49.979 49.979 0 0 1-.422-6.563c0-3.468.156-6.113.469-7.937-.813-.55-1.871-.988-3.172-1.313a16.017 16.017 0 0 0-3.969-.5c-2.648 0-4.812.915-6.5 2.735-1.73 1.855-2.594 4.121-2.594 6.797 0 2.843.977 5.18 2.938 7 1.644 1.531 3.672 2.297 6.078 2.297 2.27 0 4.66-.836 7.172-2.516Zm0 0" fill="#f4f4ee"/></svg>