<svg xmlns="http://www.w3.org/2000/svg" width="500" viewBox="0 0 375 375" height="500" version="1.0"><path d="M109.13 198.953c-1.649.918-3.29 1.375-4.922 1.375-1.73 0-3.25-.488-4.563-1.469-1.742-1.3-2.61-3.586-2.61-6.859v-.5c.032-2.895.048-4.754.048-5.578 0-.758-.055-2.317-.156-4.672h-2.813l-.094-2.672h2.985l.047-3.062c.02-.563-.012-1.43-.094-2.61-.086-1.25-.125-2.101-.125-2.562h3.578c.02.086.031.133.031.14.008.45-.031 1.29-.125 2.516-.031.418-.058 1.25-.078 2.5l-.047 3.078 7.64-.062v2.734h-7.64v10.406c0 1.93.238 3.297.719 4.11.75 1.28 1.96 1.921 3.64 1.921 1.407 0 2.583-.332 3.532-1ZM149.787 195.375c-1.836 1.906-3.43 3.184-4.782 3.828-1.867.895-3.761 1.344-5.687 1.344-3.668 0-6.637-1.352-8.906-4.063-2-2.375-3-5.078-3-8.109 0-2.094.523-4.156 1.578-6.188.976-1.906 2.27-3.437 3.875-4.593 1.843-1.352 3.968-2.032 6.375-2.032 2.656 0 5.066.875 7.234 2.625 2.719 2.188 4.078 5.141 4.078 8.86 0 .355-.031.715-.094 1.078h-19.546a6.815 6.815 0 0 0-.063.625c0 1.074.29 2.227.875 3.453a10.748 10.748 0 0 0 2.313 3.188c1.53 1.43 3.367 2.14 5.515 2.14 3.051 0 5.82-1.344 8.313-4.031Zm-18.485-9.922h15.906c-.23-1.344-.667-2.504-1.312-3.484a8.004 8.004 0 0 0-2.906-2.625 7.756 7.756 0 0 0-3.75-.953c-2.024 0-3.782.668-5.282 2-1.492 1.324-2.375 3.011-2.656 5.062ZM184.797 198.953c-1.648.918-3.289 1.375-4.922 1.375-1.73 0-3.25-.488-4.562-1.469-1.742-1.3-2.61-3.586-2.61-6.859v-.5c.032-2.895.047-4.754.047-5.578 0-.758-.054-2.317-.156-4.672h-2.812l-.094-2.672h2.984l.047-3.062c.02-.563-.012-1.43-.094-2.61-.086-1.25-.125-2.101-.125-2.562h3.578c.02.086.032.133.032.14.007.45-.032 1.29-.125 2.516-.032.418-.059 1.25-.078 2.5l-.047 3.078 7.64-.062v2.734h-7.64v10.406c0 1.93.238 3.297.718 4.11.75 1.28 1.961 1.921 3.641 1.921 1.406 0 2.582-.332 3.531-1ZM205.407 199.875v-.172c0-.187.07-1.035.219-2.547.05-.476.078-1.289.078-2.437v-10.625c0-2.477-.195-4.739-.578-6.782l3.344-.703c.093.743.175 1.72.25 2.938.812-1.188 1.597-2.004 2.36-2.453.843-.5 1.831-.75 2.968-.75 1.07 0 2.094.281 3.062.843l-.828 2.97a5.671 5.671 0 0 0-2.64-.657c-1.23 0-2.2.418-2.907 1.25-.718.812-1.199 1.777-1.437 2.89-.242 1.118-.36 2.868-.36 5.25 0 5.669.067 9.329.204 10.985ZM237.51 199.875l.016-14.516v-.172l-.172-8.578-.015-.172 3.859-.015v.922c0 .812-.04 2.156-.11 4.031a175.43 175.43 0 0 0-.062 4l-.187 14.5Zm1.735-34.344c.77 0 1.406.266 1.906.797.508.531.766 1.188.766 1.969a3 3 0 0 1-.828 2.11c-.543.585-1.188.874-1.938.874s-1.39-.285-1.922-.86a2.9 2.9 0 0 1-.797-2.046c0-.781.274-1.445.828-2 .551-.563 1.211-.844 1.985-.844ZM262.39 199.875l13.546-20.422-7.937-.016c-1.742-.019-3.367.04-4.875.172v-2.89h17.969l-13.5 20.515h8.343c.051 0 .133-.007.25-.03.22-.009 1.11-.04 2.672-.095.645-.02 1.469-.078 2.469-.172v2.938Zm0 0" fill="#272727"/></svg>