<svg xmlns="http://www.w3.org/2000/svg" width="500" viewBox="0 0 375 375" height="500" version="1.0"><path d="M80.326 194.392v13.422H42.045v-61.172h14.61v47.75ZM44.42 149.017v56.422H77.95v-8.672H54.28v-47.75ZM113.077 208.673c-6.262 0-11.633-2.14-16.11-6.422-4.468-4.289-6.703-9.46-6.703-15.515 0-6.102 2.13-11.285 6.391-15.547 4.313-4.313 9.469-6.469 15.469-6.469 4.945 0 9.445 1.5 13.5 4.5 3.625 2.73 6.148 6.18 7.578 10.344l.234.86-20.593 14.765h.312c3.781 0 6.54-1.523 8.281-4.578l10.813 8.36-.625.874c-1.844 2.73-4.477 4.887-7.89 6.469-3.22 1.57-6.774 2.36-10.657 2.36Zm-.953-41.593c-5.418 0-9.996 1.921-13.735 5.765-3.843 3.844-5.765 8.477-5.765 13.89 0 5.419 2 10.04 6 13.86 4 3.813 8.816 5.719 14.453 5.719 3.207 0 6.242-.617 9.11-1.86 2.863-1.238 5.14-2.91 6.827-5.015l-7.109-5.438c-2.055 2.368-4.996 3.547-8.828 3.547-2.531 0-4.352-.523-5.453-1.578l22.969-16.5c-1.211-3.258-3.34-6.047-6.391-8.36-3.586-2.687-7.61-4.03-12.078-4.03Zm7.422 12L102.81 191a9.21 9.21 0 0 1-1.187-4.578c0-2.894 1.023-5.367 3.078-7.422 2.05-2.05 4.523-3.078 7.422-3.078 2.844 0 5.316 1.055 7.422 3.157Zm-7.422-.782c-2.211 0-4.106.79-5.688 2.36-1.625 1.636-2.437 3.664-2.437 6.078 0 .262.023.449.078.562l11.437-8.218c-1-.52-2.132-.782-3.39-.782ZM203.438 182.001v25.813h-14.61v-61.172h33.626v13.422h-19.016v8.594h22.094V182Zm-12.234-32.984v56.422h9.859v-25.797h22.094v-8.61h-22.094V157.69h19.016v-8.672ZM258.513 208.673c-6 0-11.156-2.156-15.469-6.468-2-2-3.554-4.313-4.656-6.938-1.156-2.789-1.734-5.633-1.734-8.531 0-6.102 2.129-11.285 6.39-15.547 4.313-4.313 9.469-6.469 15.469-6.469 3.05 0 5.922.578 8.61 1.735a21.862 21.862 0 0 1 7.015 4.734c4.363 4.262 6.547 9.445 6.547 15.547 0 3.055-.578 5.898-1.735 8.531-1.105 2.625-2.71 4.938-4.812 6.938-2.055 2.054-4.39 3.632-7.016 4.734-2.687 1.156-5.558 1.734-8.609 1.734Zm0-41.593c-5.418 0-9.996 1.921-13.734 5.765-3.844 3.844-5.766 8.477-5.766 13.89 0 5.368 1.922 9.97 5.766 13.813 3.738 3.844 8.316 5.766 13.734 5.766 2.582 0 5.133-.523 7.656-1.578 2.364-.945 4.469-2.344 6.313-4.188 3.894-3.789 5.843-8.394 5.843-13.812 0-5.469-1.949-10.098-5.843-13.89-3.844-3.845-8.5-5.766-13.969-5.766Zm0 30.468c-2.898 0-5.344-1-7.344-3-2.105-2.101-3.156-4.707-3.156-7.812 0-3.102 1.023-5.68 3.078-7.735 2.05-2.05 4.524-3.078 7.422-3.078 3.05 0 5.602 1.028 7.656 3.078 2.051 2 3.078 4.579 3.078 7.735 0 3.262-1.027 5.867-3.078 7.812-2.105 2-4.656 3-7.656 3Zm0-19.25c-2.211 0-4.105.79-5.688 2.36-1.625 1.636-2.437 3.664-2.437 6.078 0 2.48.812 4.531 2.437 6.156 1.532 1.531 3.426 2.297 5.688 2.297 2.469 0 4.469-.766 6-2.297 1.57-1.57 2.36-3.625 2.36-6.156 0-2.469-.794-4.488-2.376-6.063-1.574-1.582-3.57-2.375-5.984-2.375ZM313.05 227.705c-3.637 0-7.087-.899-10.344-2.688-3.211-1.793-5.735-4.11-7.579-6.953l-.703-.938 11.047-7.968.703 1.093c1.532 2.633 3.82 3.954 6.875 3.954 2.258 0 4.149-.715 5.672-2.141 1.531-1.418 2.297-3.125 2.297-5.125v-.625c-.48.312-1.324.734-2.531 1.266a17.052 17.052 0 0 1-6 1.093c-5.73 0-10.649-2.18-14.75-6.547-4-4.257-6-9.39-6-15.39 0-6.156 2.023-11.336 6.078-15.547 2-2.05 4.207-3.629 6.625-4.734 2.476-1.157 5.16-1.735 8.047-1.735 3.05 0 5.894.79 8.531 2.36v-1.5h13.578v40.656c0 5.883-2.11 10.93-6.328 15.14-4.21 4.22-9.281 6.329-15.219 6.329Zm-8.22-15.157-7.093 5.125a20.486 20.486 0 0 0 6.156 5.297c2.79 1.57 5.844 2.36 9.156 2.36 5.258 0 9.77-1.872 13.532-5.61 3.757-3.73 5.64-8.226 5.64-13.484v-38.281h-8.844v4.578c-1.312-1.946-3.011-3.344-5.093-4.188-2.075-.844-4.008-1.265-5.797-1.265-5.106 0-9.418 1.898-12.938 5.687-3.636 3.899-5.453 8.555-5.453 13.969 0 5.367 1.785 9.969 5.36 13.812 3.582 3.844 7.925 5.766 13.03 5.766 5 0 8.63-2.023 10.891-6.078v6.703c0 2.687-1 4.96-3 6.828-1.992 1.863-4.433 2.797-7.328 2.797-3.375 0-6.117-1.34-8.218-4.016Zm8.766-15c-2.898 0-5.37-1.023-7.422-3.078-2.054-2.05-3.078-4.629-3.078-7.734 0-3.051 1.024-5.656 3.078-7.813 2-2 4.473-3 7.422-3 3 0 5.445 1.028 7.344 3.078 1.945 2.055 2.922 4.633 2.922 7.735 0 3.105-.977 5.683-2.922 7.734-1.95 2.055-4.399 3.078-7.344 3.078Zm5.61-16.968c-1.43-1.52-3.297-2.282-5.61-2.282-2.312 0-4.234.79-5.765 2.36-1.575 1.586-2.36 3.61-2.36 6.078 0 2.367.785 4.39 2.36 6.078 1.582 1.586 3.503 2.375 5.765 2.375 2.258 0 4.13-.79 5.61-2.375 1.52-1.52 2.28-3.547 2.28-6.078 0-2.469-.76-4.52-2.28-6.156Zm0 0" fill="#f4f4ee"/></svg>