<svg xmlns="http://www.w3.org/2000/svg" width="500" viewBox="0 0 375 375" height="500" version="1.0"><path d="m75.011 200.797-10.578-23.61 3.25-1.515a1239.408 1239.408 0 0 0 7.547 18.297l8.563-18.375 7.875 18.375a555.104 555.104 0 0 0 8.218-17.922l2.813 1.36.047.437-11.328 22.922-7.844-17.704ZM123.329 199.875v-.172c0-.187.07-1.035.219-2.547.05-.476.078-1.289.078-2.437v-10.625c0-2.477-.196-4.739-.578-6.782l3.343-.703c.094.743.176 1.72.25 2.938.813-1.188 1.598-2.004 2.36-2.453.843-.5 1.832-.75 2.968-.75 1.07 0 2.094.281 3.063.843l-.828 2.97a5.671 5.671 0 0 0-2.64-.657c-1.231 0-2.2.418-2.907 1.25-.719.812-1.2 1.777-1.438 2.89-.242 1.118-.359 2.868-.359 5.25 0 5.669.066 9.329.203 10.985ZM155.432 199.875l.016-14.516v-.172l-.172-8.578-.016-.172 3.86-.015v.922c0 .812-.04 2.156-.11 4.031a175.43 175.43 0 0 0-.062 4l-.188 14.5Zm1.734-34.344c.77 0 1.407.266 1.907.797.507.531.765 1.188.765 1.969a3 3 0 0 1-.828 2.11c-.543.585-1.187.874-1.937.874s-1.39-.285-1.922-.86a2.9 2.9 0 0 1-.797-2.046c0-.781.273-1.445.828-2 .55-.563 1.211-.844 1.984-.844ZM195.78 198.953c-1.649.918-3.29 1.375-4.922 1.375-1.73 0-3.25-.488-4.563-1.469-1.742-1.3-2.609-3.586-2.609-6.859v-.5c.031-2.895.047-4.754.047-5.578 0-.758-.055-2.317-.156-4.672h-2.813l-.094-2.672h2.985l.047-3.062c.02-.563-.012-1.43-.094-2.61-.086-1.25-.125-2.101-.125-2.562h3.578c.02.086.031.133.031.14.008.45-.03 1.29-.125 2.516-.03.418-.058 1.25-.078 2.5l-.047 3.078 7.641-.062v2.734h-7.64v10.406c0 1.93.238 3.297.718 4.11.75 1.28 1.961 1.921 3.64 1.921 1.407 0 2.583-.332 3.532-1ZM216.859 199.875l.015-14.516v-.172l-.172-8.578-.015-.172 3.86-.015v.922c0 .812-.04 2.156-.11 4.031a175.43 175.43 0 0 0-.063 4l-.187 14.5Zm1.734-34.344c.77 0 1.406.266 1.906.797.508.531.766 1.188.766 1.969a3 3 0 0 1-.828 2.11c-.543.585-1.188.874-1.938.874s-1.39-.285-1.922-.86a2.9 2.9 0 0 1-.796-2.046c0-.781.273-1.445.828-2 .55-.563 1.21-.844 1.984-.844ZM244.113 199.875c0-.031.047-1.273.14-3.734v-12.782c0-1.718-.156-3.093-.468-4.125 4.05-2.394 7.562-3.593 10.53-3.593 2.458 0 4.595.656 6.407 1.968 1.125.813 1.914 1.782 2.375 2.907.457 1.117.688 2.664.688 4.64l-.047 6.844.015 3.64v.157c.051 2.305.11 3.664.172 4.078h-3.984v-.203c.27-2.664.406-4.64.406-5.922v-8.266c0-1.644-.281-3.023-.844-4.14-.418-.813-1.07-1.446-1.953-1.907-.96-.519-2.027-.78-3.203-.78-2.344 0-4.57.648-6.672 1.937v13.547c.008 1.511.114 3.421.313 5.734ZM286.947 207.203l2.39-2c1.083 1.414 2.196 2.422 3.345 3.016 1.156.593 2.53.89 4.125.89 2.8 0 4.859-.886 6.172-2.656 1.082-1.46 1.625-3.46 1.625-6 0-.582-.043-1.25-.125-2-2.461 1.375-4.961 2.063-7.5 2.063-3.586 0-6.508-1.133-8.766-3.407-2.375-2.351-3.563-5.289-3.563-8.812 0-3.688 1.305-6.703 3.922-9.047 2.5-2.27 5.477-3.406 8.938-3.406 2.664 0 5.304.605 7.922 1.812 1.687.781 2.582 1.2 2.687 1.25-.168.563-.336 1.664-.5 3.297-.168 1.637-.25 2.961-.25 3.969 0 2.793.13 6.648.39 11.562.071 1.282.11 2.344.11 3.188 0 3.687-1.015 6.457-3.047 8.312-1.93 1.75-4.46 2.625-7.593 2.625-2.188 0-4.086-.37-5.688-1.109-1.605-.73-3.137-1.914-4.594-3.547Zm17.407-12.078a49.979 49.979 0 0 1-.422-6.563c0-3.468.156-6.113.468-7.937-.812-.55-1.87-.988-3.171-1.313a16.017 16.017 0 0 0-3.97-.5c-2.648 0-4.812.915-6.5 2.735-1.73 1.855-2.593 4.121-2.593 6.797 0 2.843.977 5.18 2.938 7 1.644 1.531 3.671 2.297 6.078 2.297 2.27 0 4.66-.836 7.172-2.516Zm0 0" fill="#272727"/></svg>